<svg width="353" height="95" viewBox="0 0 353 95" fill="none" xmlns="http://www.w3.org/2000/svg">
<g clip-path="url(#clip0_4788_593)">
<path fill-rule="evenodd" clip-rule="evenodd" d="M8.97557 59.6195C8.37567 58.6602 8.76997 57.3535 9.83452 56.9701C12.4277 56.0348 14.1538 57.2608 15.7927 60.0847C18.9743 65.5684 24.4945 73.4718 32.0975 76.7631C31.1518 76.7511 30.1582 76.6933 29.1127 76.5881L29.5305 76.6213C20.1327 74.9727 13.1744 66.3357 8.97557 59.6195Z" fill="url(#paint0_linear_4788_593)"/>
<path fill-rule="evenodd" clip-rule="evenodd" d="M2.98786 61.7116C1.95112 60.2178 1.03545 58.6756 0.232666 57.0885C-0.319246 55.9973 0.141592 54.6262 1.2885 54.2008C4.08514 53.1641 5.9383 54.4675 7.69657 57.4981C11.6816 64.3648 19.1051 74.7928 29.5298 76.6214C29.3586 76.6089 29.1868 76.5947 29.0155 76.5794C27.7017 76.4436 26.3083 76.232 24.8255 75.931C17.5868 74.4634 9.08671 70.5046 2.98023 61.6985L2.98786 61.7116Z" fill="url(#paint1_linear_4788_593)"/>
<path fill-rule="evenodd" clip-rule="evenodd" d="M62.1139 94.985C65.9833 95.3204 68.2918 90.0047 68.7952 82.129L55.7113 81.2935C55.3759 89.6922 58.6028 93.7633 61.2424 94.7608C61.5974 94.8797 61.893 94.9566 62.1139 94.985Z" fill="url(#paint2_linear_4788_593)"/>
<path fill-rule="evenodd" clip-rule="evenodd" d="M62.1138 94.985C42.9185 92.827 13.593 80.9238 2.98074 61.6985C9.08722 70.5046 17.5879 74.4634 24.826 75.931C44.0344 79.8265 48.4529 69.0059 53.6323 65.7239C55.0181 64.8464 57.2699 65.1065 59.0898 66.14C51.6193 86.5558 58.2101 94.4849 62.1138 94.985Z" fill="url(#paint3_linear_4788_593)"/>
<path d="M39.5292 57.4473C43.0936 57.4473 45.9831 54.5578 45.9831 50.9934C45.9831 47.4291 43.0936 44.5396 39.5292 44.5396C35.9649 44.5396 33.0754 47.4291 33.0754 50.9934C33.0754 54.5578 35.9649 57.4473 39.5292 57.4473Z" fill="#00B9F2"/>
<path d="M39.5292 57.4473C43.0936 57.4473 45.9831 54.5578 45.9831 50.9934C45.9831 47.4291 43.0936 44.5396 39.5292 44.5396C35.9649 44.5396 33.0754 47.4291 33.0754 50.9934C33.0754 54.5578 35.9649 57.4473 39.5292 57.4473Z" fill="url(#paint4_linear_4788_593)"/>
<path opacity="0.75" d="M39.5292 52.3466C41.7719 52.3466 43.59 50.8073 43.59 48.9086C43.59 47.0098 41.7719 45.4706 39.5292 45.4706C37.2864 45.4706 35.4684 47.0098 35.4684 48.9086C35.4684 50.8073 37.2864 52.3466 39.5292 52.3466Z" fill="white"/>
<path fill-rule="evenodd" clip-rule="evenodd" d="M27.1324 64.3163C27.4711 64.2721 27.8206 64.2737 28.1811 64.3304C31.0814 64.7891 33.1554 71.0194 39.497 75.8006C38.1962 76.1916 36.7625 76.4807 35.1749 76.6356C31.4648 73.7386 28.4445 69.9128 26.1595 66.4437C25.89 66.0353 25.8535 65.5553 26.0564 65.1109C26.2603 64.6658 26.647 64.3801 27.1324 64.3163Z" fill="url(#paint5_linear_4788_593)"/>
<path fill-rule="evenodd" clip-rule="evenodd" d="M17.7367 60.3051C20.5944 59.0267 22.4231 60.214 24.1524 63.1949C26.5389 67.3076 30.2491 72.7901 35.1743 76.6355C34.2074 76.7299 33.1821 76.7751 32.0946 76.7615C25.4684 73.8923 20.4254 67.5208 17.133 62.3016C16.9116 61.951 16.8592 61.5621 16.9792 61.1651C17.0992 60.7686 17.3582 60.4747 17.7367 60.3051Z" fill="url(#paint6_linear_4788_593)"/>
<path fill-rule="evenodd" clip-rule="evenodd" d="M27.7235 1.25597L76.4286 42.1242L69.7037 42.2267L61.8139 37.9259L63.7265 44.1628H59.6597L53.4332 33.3568L53.305 42.2354H49.6336L47.0061 29.8534L46.0446 36.0193L43.7644 35.9386L41.6135 26.9139L37.2303 24.5633L29.3607 27.1773L17.9663 42.2354L14.3811 42.2349L17.7084 19.6354L4.12872 6.53567L20.5988 0L27.7235 1.25597Z" fill="#006699"/>
<path fill-rule="evenodd" clip-rule="evenodd" d="M17.9658 42.2354L15.9419 31.6351L29.3601 27.1773L17.9658 42.2354Z" fill="#007CB3"/>
<path fill-rule="evenodd" clip-rule="evenodd" d="M35.8769 15.8337L28.0847 22.0105L23.3023 18.0195L28.0274 9.28107L35.8769 15.8337Z" fill="#9DDCF9"/>
<path fill-rule="evenodd" clip-rule="evenodd" d="M28.0272 9.28099L35.8767 15.8336L35.7491 7.9552L28.0272 9.28099Z" fill="#0095D5"/>
<path fill-rule="evenodd" clip-rule="evenodd" d="M28.0845 22.0105L15.9419 31.6346L46.2872 21.5551L28.0845 22.0105Z" fill="#0095D5"/>
<path fill-rule="evenodd" clip-rule="evenodd" d="M18.9954 10.8899L20.5988 0L4.12872 6.53567L18.9954 10.8899Z" fill="#0095D5"/>
<path fill-rule="evenodd" clip-rule="evenodd" d="M53.4332 33.3568L61.8171 37.9368L61.4381 29.5104L53.4332 33.3568Z" fill="#0095D5"/>
<path fill-rule="evenodd" clip-rule="evenodd" d="M61.8138 37.926L69.3737 36.2048L69.7037 42.2268L61.8138 37.926Z" fill="#0095D5"/>
<path fill-rule="evenodd" clip-rule="evenodd" d="M49.6337 42.2355L47.0061 29.8535L53.4333 33.3569L53.3051 42.2349L49.6337 42.2355Z" fill="#0095D5"/>
<path fill-rule="evenodd" clip-rule="evenodd" d="M53.4333 33.3568L53.412 22.8111L61.4382 29.5104L53.4333 33.3568Z" fill="#007CB3"/>
<path fill-rule="evenodd" clip-rule="evenodd" d="M15.9415 31.6351L17.7079 19.6354L20.5989 0L23.3023 18.0195L15.9415 31.6351Z" fill="#00C0F3"/>
<path fill-rule="evenodd" clip-rule="evenodd" d="M20.5989 0L28.0274 9.28105L27.7236 1.25542L20.5989 0Z" fill="#00C0F3"/>
<path fill-rule="evenodd" clip-rule="evenodd" d="M35.8768 15.8337L43.6854 14.6497L46.2873 21.5552L35.8768 15.8337Z" fill="#00C0F3"/>
<path fill-rule="evenodd" clip-rule="evenodd" d="M46.2873 21.5551L53.4333 33.3569L53.412 22.8111L46.2873 21.5551Z" fill="#00C0F3"/>
<path fill-rule="evenodd" clip-rule="evenodd" d="M61.8139 37.9259L61.4382 29.5104L69.4638 36.2091L61.8139 37.9259Z" fill="#00C0F3"/>
<path fill-rule="evenodd" clip-rule="evenodd" d="M41.6136 26.9139L47.0062 29.8534L46.0448 36.0193L43.7646 35.9386L41.6136 26.9139Z" fill="#00C0F3"/>
<path fill-rule="evenodd" clip-rule="evenodd" d="M23.3022 18.0195L28.0845 22.0105L15.9419 31.6346L23.3022 18.0195Z" fill="#6DCFF6"/>
<path fill-rule="evenodd" clip-rule="evenodd" d="M28.0273 9.28105L20.5988 0L23.3022 18.0195L28.0273 9.28105Z" fill="#6DCFF6"/>
<path fill-rule="evenodd" clip-rule="evenodd" d="M35.8769 15.8336L28.0847 22.0104L46.2874 21.555L35.8769 15.8336Z" fill="#6DCFF6"/>
<path fill-rule="evenodd" clip-rule="evenodd" d="M28.0274 9.28106L27.7236 1.25543L35.7492 7.95527L28.0274 9.28106Z" fill="#6DCFF6"/>
<path fill-rule="evenodd" clip-rule="evenodd" d="M35.8768 15.8336L35.7492 7.9552L43.6854 14.6496L35.8768 15.8336Z" fill="#6DCFF6"/>
<path fill-rule="evenodd" clip-rule="evenodd" d="M15.9419 31.6345L17.9658 42.2354L14.3811 42.2348L15.9419 31.6345Z" fill="#6DCFF6"/>
<path opacity="0.25" fill-rule="evenodd" clip-rule="evenodd" d="M27.7235 1.25597L76.4286 42.1242L69.7037 42.2267L61.8139 37.9259L63.7265 44.1628H59.6597L53.4332 33.3568L53.305 42.2354H49.6336L47.0061 29.8534L46.0446 36.0193L43.7644 35.9386L41.6135 26.9139L37.2303 24.5633L29.3607 27.1773L17.9663 42.2354L14.3811 42.2349L17.7084 19.6354L4.12872 6.53567L20.5988 0L27.7235 1.25597Z" fill="url(#paint7_linear_4788_593)"/>
<path opacity="0.5" fill-rule="evenodd" clip-rule="evenodd" d="M27.7235 1.25597L76.4286 42.1242L69.7037 42.2267L61.8139 37.9259L63.7265 44.1628H59.6597L53.4332 33.3568L53.305 42.2354H49.6336L47.0061 29.8534L46.0446 36.0193L43.7644 35.9386L41.6135 26.9139L37.2303 24.5633L29.3607 27.1773L17.9663 42.2354L14.3811 42.2349L17.7084 19.6354L4.12872 6.53567L20.5988 0L27.7235 1.25597Z" fill="url(#paint8_linear_4788_593)"/>
<path opacity="0.5" fill-rule="evenodd" clip-rule="evenodd" d="M27.7235 1.25597L76.4286 42.1242L69.7037 42.2267L61.8139 37.9259L63.7265 44.1628H59.6597L53.4332 33.3568L53.305 42.2354H49.6336L47.0061 29.8534L46.0446 36.0193L43.7644 35.9386L41.6135 26.9139L37.2303 24.5633L29.3607 27.1773L17.9663 42.2354L14.3811 42.2349L17.7084 19.6354L4.12872 6.53567L20.5988 0L27.7235 1.25597Z" fill="url(#paint9_linear_4788_593)"/>
<path opacity="0.5" fill-rule="evenodd" clip-rule="evenodd" d="M49.6337 42.2355L47.0061 29.8535L53.4333 33.3569L53.3051 42.2349L49.6337 42.2355Z" fill="url(#paint10_linear_4788_593)"/>
<path opacity="0.5" fill-rule="evenodd" clip-rule="evenodd" d="M61.8171 37.9369L53.4332 33.3569L59.6591 44.1622H63.7259L61.8171 37.9369Z" fill="url(#paint11_linear_4788_593)"/>
<path opacity="0.5" fill-rule="evenodd" clip-rule="evenodd" d="M41.6136 26.9139L47.0062 29.8534L46.0447 36.0193L43.7645 35.9386L41.6136 26.9139Z" fill="url(#paint12_linear_4788_593)"/>
<path fill-rule="evenodd" clip-rule="evenodd" d="M251.109 30.4795H244.211V66.4754H269.003V60.0957H251.109V30.4795ZM295.995 39.7633V66.4754H289.46V63.6226C287.385 65.8008 284.532 67.0458 281.265 67.0458C274.315 67.0458 268.558 61.0293 268.558 53.1461C268.558 45.2104 274.315 39.1934 281.265 39.1934C284.533 39.1934 287.385 40.4379 289.46 42.6166V39.7638H295.995V39.7633ZM289.149 53.1973C289.149 48.9445 286.088 45.5213 282.302 45.5213C278.516 45.5213 275.456 48.8404 275.456 53.1973C275.456 57.4506 278.516 60.7179 282.302 60.7179C286.088 60.7179 289.149 57.3465 289.149 53.1973ZM327.395 53.1455C327.395 45.2099 321.69 39.1928 314.688 39.1928C311.628 39.1928 308.879 40.3343 306.856 42.3047V27.8863H299.957V66.4748H306.545V63.622C308.619 65.8002 311.472 67.0453 314.687 67.0453C321.69 67.0453 327.395 61.0293 327.395 53.1455ZM320.549 53.1973C320.549 57.4506 317.488 60.7179 313.702 60.7179C309.916 60.7179 306.856 57.3465 306.856 53.1973C306.856 48.9445 309.915 45.5213 313.702 45.5213C317.489 45.5213 320.549 48.8404 320.549 53.1973ZM352.261 58.0729C352.261 52.2637 347.491 50.7933 340.85 49.7228C337.535 49.1878 335.559 48.7373 335.559 47.3368C335.559 46.3513 336.856 45.2104 340.02 45.2104C342.562 45.2104 344.066 46.1954 344.481 47.4404H351.587C350.705 42.4094 346.141 39.0903 340.02 39.0903C332.292 39.0903 328.61 43.4467 328.61 47.6482C328.61 53.6129 334.992 54.9032 339.761 55.6362C344.428 56.3528 345.362 56.9843 345.362 58.4885C345.362 60.0449 343.288 60.8745 340.539 60.8745C338.516 60.8745 335.768 60.0444 334.834 57.7626H327.884C328.713 63.5195 333.744 67.0982 340.539 67.0982C347.385 67.0976 352.261 63.363 352.261 58.0729Z" fill="url(#paint13_linear_4788_593)"/>
<path fill-rule="evenodd" clip-rule="evenodd" d="M100.54 30.4795H93.6934V66.4754H100.54V30.4795ZM128.569 50.8631C128.569 43.8094 124.419 39.0898 118.144 39.0898C115.291 39.0898 112.957 40.3343 111.246 42.3571V39.7633H104.71V66.4754H111.557V50.8631C111.557 47.8554 113.683 45.5725 116.744 45.5725C121.256 45.5725 121.723 49.3099 121.723 50.8631V66.4754H128.57V50.8631H128.569ZM154.835 58.0729C154.835 52.2637 150.065 50.7933 143.424 49.7228C140.11 49.1878 138.134 48.7373 138.134 47.3368C138.134 46.3513 139.431 45.2104 142.595 45.2104C145.136 45.2104 146.64 46.1954 147.055 47.4404H154.16C153.279 42.4094 148.714 39.0903 142.595 39.0903C134.866 39.0903 131.184 43.4467 131.184 47.6482C131.184 53.6129 137.566 54.9032 142.335 55.6362C147.003 56.3534 147.937 56.9843 147.937 58.4885C147.937 60.0449 145.863 60.8745 143.113 60.8745C141.09 60.8745 138.342 60.0444 137.408 57.7626H130.458C131.287 63.5195 136.318 67.0982 143.112 67.0982C149.96 67.0976 154.835 63.363 154.835 58.0729ZM164.193 30.4795H157.346V36.8592H164.193V30.4795ZM164.193 39.7633H157.346V66.4754H164.193V39.7633ZM194.141 27.8863H187.295V42.3047C185.22 40.3343 182.523 39.1928 179.41 39.1928C172.46 39.1928 166.703 45.2099 166.703 53.1455C166.703 61.0293 172.46 67.0453 179.41 67.0453C182.678 67.0453 185.479 65.8008 187.606 63.622V66.4748H194.141V27.8863H194.141ZM187.295 53.1973C187.295 57.347 184.234 60.7179 180.448 60.7179C176.662 60.7179 173.602 57.4501 173.602 53.1973C173.602 48.8404 176.662 45.5213 180.448 45.5213C184.234 45.5213 187.295 48.9445 187.295 53.1973ZM223.726 55.7911C224.712 45.2099 218.176 39.0898 210.293 39.0898C202.772 39.0898 196.6 45.4171 196.6 53.1455C196.6 60.8734 202.772 67.0971 210.293 67.0971C216.932 67.0971 221.652 63.4148 223.207 57.9693H215.894C214.754 60.0957 212.523 61.0812 210.241 61.0812C207.025 61.0812 204.432 59.0584 203.55 55.7905H223.726V55.7911ZM203.654 50.1891C204.639 47.0772 207.129 45.1057 210.241 45.1057C213.509 45.1057 216.103 47.0772 216.932 50.1891H203.654ZM241.279 39.2452C238.062 38.726 234.847 39.712 232.668 42.4089V39.7627H226.133V66.4748H232.98V53.3522C232.98 51.2258 233.239 49.0476 234.691 47.5435C236.247 45.8834 238.529 45.5726 241.278 45.8834V39.2452H241.279Z" fill="white"/>
</g>
<defs>
<linearGradient id="paint0_linear_4788_593" x1="20.8417" y1="66.7573" x2="17.5196" y2="71.6901" gradientUnits="userSpaceOnUse">
<stop stop-color="white"/>
<stop offset="1" stop-color="#6B7B84"/>
</linearGradient>
<linearGradient id="paint1_linear_4788_593" x1="14.0889" y1="67.229" x2="11.3709" y2="71.8598" gradientUnits="userSpaceOnUse">
<stop stop-color="white"/>
<stop offset="1" stop-color="#6B7B84"/>
</linearGradient>
<linearGradient id="paint2_linear_4788_593" x1="52.1435" y1="97.4141" x2="67.01" y2="79.8171" gradientUnits="userSpaceOnUse">
<stop offset="0.4938" stop-color="white"/>
<stop offset="1" stop-color="#6B7B84"/>
</linearGradient>
<linearGradient id="paint3_linear_4788_593" x1="2.98074" y1="78.3416" x2="62.1136" y2="78.3416" gradientUnits="userSpaceOnUse">
<stop offset="0.6643" stop-color="white"/>
<stop offset="1" stop-color="#6B7B84"/>
</linearGradient>
<linearGradient id="paint4_linear_4788_593" x1="39.5295" y1="44.0777" x2="39.5295" y2="51.5746" gradientUnits="userSpaceOnUse">
<stop stop-color="white"/>
<stop offset="1" stop-color="white" stop-opacity="0"/>
</linearGradient>
<linearGradient id="paint5_linear_4788_593" x1="33.7159" y1="69.3237" x2="30.2652" y2="73.3193" gradientUnits="userSpaceOnUse">
<stop stop-color="white"/>
<stop offset="1" stop-color="#6B7B84"/>
</linearGradient>
<linearGradient id="paint6_linear_4788_593" x1="26.715" y1="67.9875" x2="23.6729" y2="71.9831" gradientUnits="userSpaceOnUse">
<stop stop-color="white"/>
<stop offset="1" stop-color="#6B7B84"/>
</linearGradient>
<linearGradient id="paint7_linear_4788_593" x1="10.2031" y1="31.2219" x2="24.6074" y2="27.402" gradientUnits="userSpaceOnUse">
<stop stop-color="white"/>
<stop offset="1" stop-color="white" stop-opacity="0"/>
</linearGradient>
<linearGradient id="paint8_linear_4788_593" x1="44.1574" y1="18.8353" x2="42.2474" y2="21.5411" gradientUnits="userSpaceOnUse">
<stop stop-color="white"/>
<stop offset="1" stop-color="white" stop-opacity="0"/>
</linearGradient>
<linearGradient id="paint9_linear_4788_593" x1="46.4406" y1="43.8607" x2="35.5825" y2="26.2394" gradientUnits="userSpaceOnUse">
<stop stop-color="white"/>
<stop offset="1" stop-color="white" stop-opacity="0"/>
</linearGradient>
<linearGradient id="paint10_linear_4788_593" x1="50.2568" y1="33.4923" x2="49.9879" y2="40.2822" gradientUnits="userSpaceOnUse">
<stop stop-color="#0072BC"/>
<stop offset="1" stop-color="white" stop-opacity="0"/>
</linearGradient>
<linearGradient id="paint11_linear_4788_593" x1="57.8589" y1="36.2005" x2="59.8085" y2="43.1248" gradientUnits="userSpaceOnUse">
<stop stop-color="#0072BC"/>
<stop offset="1" stop-color="white" stop-opacity="0"/>
</linearGradient>
<linearGradient id="paint12_linear_4788_593" x1="44.3004" y1="28.1508" x2="44.5693" y2="34.8735" gradientUnits="userSpaceOnUse">
<stop stop-color="#0072BC"/>
<stop offset="1" stop-color="white" stop-opacity="0"/>
</linearGradient>
<linearGradient id="paint13_linear_4788_593" x1="260.953" y1="83.2172" x2="325.37" y2="18.7997" gradientUnits="userSpaceOnUse">
<stop stop-color="#D4EFFC"/>
<stop offset="1" stop-color="#00B9F2"/>
</linearGradient>
<clipPath id="clip0_4788_593">
<rect width="352.261" height="95" fill="white"/>
</clipPath>
</defs>
</svg>
